{
  "accessors": [
    {
      "bufferView": 2,
      "componentType": 5126,
      "count": 619,
      "max": [
        0.2083280086517334,
        0.21468600630760193,
        0.18332600593566895
      ],
      "min": [
        0,
        0,
        0
      ],
      "type": "VEC3"
    },
    {
      "bufferView": 2,
      "byteOffset": 7428,
      "componentType": 5126,
      "count": 619,
      "max": [
        0.99580186605453491,
        0.99947023391723633,
        0.99947363138198853
      ],
      "min": [
        -0.99552834033966064,
        -0.99999409914016724,
        -0.90072423219680786
      ],
      "type": "VEC3"
    },
    {
      "bufferView": 3,
      "componentType": 5126,
      "count": 619,
      "max": [
        0.999889075756073,
        0.99535554647445679,
        0.89976513385772705,
        1
      ],
      "min": [
        -0.99994540214538574,
        -0.99667024612426758,
        -0.89250391721725464,
        -1
      ],
      "type": "VEC4"
    },
    {
      "bufferView": 1,
      "componentType": 5126,
      "count": 619,
      "max": [
        0.99307501316070557,
        0.40608099102973938
      ],
      "min": [
        0.0061690001748502254,
        0.0072759999893605709
      ],
      "type": "VEC2"
    },
    {
      "bufferView": 0,
      "componentType": 5125,
      "count": 3384,
      "max": [
        618
      ],
      "min": [
        0
      ],
      "type": "SCALAR"
    }
  ],
  "asset": {
    "extras": {
      "author": "StubbornFunkyDonkey (https://sketchfab.com/stubbornfunkydonkey)",
      "license": "CC-BY-4.0 (http://creativecommons.org/licenses/by/4.0/)",
      "source": "https://sketchfab.com/3d-models/winter-hat-637a36cb74204c719883af7feb4b7c28",
      "title": "Winter Hat"
    },
    "generator": "Sketchfab-7.35.0",
    "version": "2.0"
  },
  "bufferViews": [
    {
      "buffer": 0,
      "byteLength": 13536,
      "byteOffset": 0,
      "name": "floatBufferViews",
      "target": 34963
    },
    {
      "buffer": 0,
      "byteLength": 4952,
      "byteOffset": 13536,
      "byteStride": 8,
      "name": "floatBufferViews",
      "target": 34962
    },
    {
      "buffer": 0,
      "byteLength": 14856,
      "byteOffset": 18488,
      "byteStride": 12,
      "name": "floatBufferViews",
      "target": 34962
    },
    {
      "buffer": 0,
      "byteLength": 9904,
      "byteOffset": 33344,
      "byteStride": 16,
      "name": "floatBufferViews",
      "target": 34962
    }
  ],
  "buffers": [
    {
      "byteLength": 43248,
      "uri": "scene.bin"
    }
  ],
  "images": [
    {
      "uri": "textures/Hat02_LoPolyinitialShadingGroup_baseColor.png"
    },
    {
      "uri": "textures/Hat02_LoPolyinitialShadingGroup_metallicRoughness.png"
    },
    {
      "uri": "textures/Hat02_LoPolyinitialShadingGroup_normal.png"
    }
  ],
  "materials": [
    {
      "doubleSided": true,
      "name": "Hat02_LoPolyinitialShadingGroup",
      "normalTexture": {
        "index": 2,
        "scale": 1,
        "texCoord": 0
      },
      "occlusionTexture": {
        "index": 1,
        "strength": 1,
        "texCoord": 0
      },
      "pbrMetallicRoughness": {
        "baseColorFactor": [
          1,
          1,
          1,
          1
        ],
        "baseColorTexture": {
          "index": 0,
          "texCoord": 0
        },
        "metallicFactor": 0,
        "metallicRoughnessTexture": {
          "index": 1,
          "texCoord": 0
        },
        "roughnessFactor": 1
      }
    }
  ],
  "meshes": [
    {
      "primitives": [
        {
          "attributes": {
            "NORMAL": 1,
            "POSITION": 0,
            "TANGENT": 2,
            "TEXCOORD_0": 3
          },
          "indices": 4,
          "material": 0,
          "mode": 4
        }
      ]
    }
  ],
  "nodes": [
    {
      "children": [
        1
      ],
      "name": "RootNode (gltf orientation matrix)",
      "rotation": [
        -0.70710678118654746,
        -0,
        -0,
        0.70710678118654757
      ]
    },
    {
      "children": [
        2
      ],
      "name": "RootNode (model correction matrix)"
    },
    {
      "children": [
        3
      ],
      "matrix": [
        1,
        0,
        0,
        0,
        0,
        1,
        0,
        0,
        0,
        0,
        1,
        0,
        -0.10416000336408615,
        -0.12922300398349762,
        1.6363300085067749,
        1
      ],
      "name": "Hat_Final_LoPoly.OBJ.cleaner.gles"
    },
    {
      "children": [
        4
      ],
      "name": ""
    },
    {
      "mesh": 0,
      "name": ""
    }
  ],
  "samplers": [
    {
      "magFilter": 9729,
      "minFilter": 9987,
      "wrapS": 10497,
      "wrapT": 10497
    }
  ],
  "scene": 0,
  "scenes": [
    {
      "name": "OSG_Scene",
      "nodes": [
        0
      ]
    }
  ],
  "textures": [
    {
      "sampler": 0,
      "source": 0
    },
    {
      "sampler": 0,
      "source": 1
    },
    {
      "sampler": 0,
      "source": 2
    }
  ]
}

